<svg xmlns="http://www.w3.org/2000/svg" viewBox="0 0 445.77 445.77"><defs><style>.cls-1{fill:none;stroke:#8f1f1f;stroke-miterlimit:10;opacity:0;}.cls-2{fill:#277fa0;}.cls-3{fill:#00a8e3;}</style></defs><g id="Layer_2" data-name="Layer 2"><g id="Layer_1-2" data-name="Layer 1"><rect class="cls-1" x="0.5" y="0.5" width="444.77" height="444.77"/><path class="cls-2" d="M220.18,25.62c-111,0-201,90-201,201s90,201,201,201,201-90,201-201S331.2,25.62,220.18,25.62Zm0,300.39a99.36,99.36,0,1,1,99.35-99.36A99.36,99.36,0,0,1,220.18,326Z"/><path class="cls-3" d="M225.6,18.09c-111,0-201,90-201,201s90,201,201,201,201-90,201-201S336.62,18.09,225.6,18.09Zm0,300.39A99.36,99.36,0,1,1,325,219.12,99.36,99.36,0,0,1,225.6,318.48Z"/></g></g></svg>